<!-- #352728 -->
<svg width="66" height="77" version="1.1" id="svg3430" xmlns="http://www.w3.org/2000/svg" xmlns:xlink="http://www.w3.org/1999/xlink" x="0" y="0" viewBox="0 0 3000 1687.5" style="enable-background:new 0 0 3000 1687.5" xml:space="preserve"><style>.st5{fill:#352728}</style><g id="g3440"><defs><path id="SVGID_1_" d="M60 843.8c0 418.3 644.7 757.5 1440 757.5s1440-339.1 1440-757.5c0-418.3-644.7-757.5-1440-757.5S60 425.4 60 843.8"/></defs><clipPath id="SVGID_2_"><use xlink:href="#SVGID_1_" style="overflow:visible"/></clipPath><g id="g3442" style="clip-path:url(#SVGID_2_)"><g id="g3448"><g id="g3450"><radialGradient id="path3462_1_" cx="1104.855" cy="984.043" r="4.167" gradientTransform="matrix(453.8224 0 0 -453.8224 -500483.281 446933.344)" gradientUnits="userSpaceOnUse"><stop offset="0" style="stop-color:#aeb2d5"/><stop offset=".3" style="stop-color:#aeb2d5"/><stop offset=".75" style="stop-color:#484c89"/><stop offset="1" style="stop-color:#484c89"/></radialGradient><path id="path3462" d="M60 843.8c0 418.3 644.7 757.5 1440 757.5s1440-339.1 1440-757.5c0-418.3-644.7-757.5-1440-757.5S60 425.4 60 843.8" style="fill:#352728"/></g></g></g></g><g id="g3464"><defs><path id="SVGID_3_" d="M0 0h3000v1687.5H0z"/></defs><clipPath id="SVGID_4_"><use xlink:href="#SVGID_3_" style="overflow:visible"/></clipPath><g id="g3466" style="clip-path:url(#SVGID_4_)"><g id="g3472" transform="translate(288 27.36)"><path id="path3474" d="M1212 1517.6c764.2 0 1383.8-314 1383.8-701.3C2595.8 429 1976.3 115 1212 115S-171.8 429-171.8 816.3c.1 387.4 619.6 701.3 1383.8 701.3" style="fill:#352728"/></g></g></g><g id="g3476"><defs><path id="SVGID_5_" d="M0 0h3000v1687.5H0z"/></defs><clipPath id="SVGID_6_"><use xlink:href="#SVGID_5_" style="overflow:visible"/></clipPath><g id="g3478" style="clip-path:url(#SVGID_6_)"><g id="g3484" transform="translate(161.734 145.307)"><path id="path3486" d="M680.6 785.4c62.8 0 109.8-11.6 139.4-34.4 29.4-22.6 49.6-61.8 60.3-116.4 9.9-51.1 6.1-86.7-11.2-106-17.7-19.7-56.1-29.6-114-29.6H654.7L599 785.4h81.6zm-328.4 352.9c-4.7 0-9.1-2.1-12.1-5.7s-4.2-8.3-3.3-12.9l147.5-759.1c1.4-7.3 7.9-12.6 15.3-12.6h318c99.9 0 174.3 27.1 221.1 80.7 47 53.8 61.5 129 43.1 223.5-7.5 38.5-20.3 74.3-38.2 106.3-17.9 32.1-41.6 61.7-70.4 88.2-34.5 32.3-73.5 55.6-115.8 69.4-41.7 13.6-95.2 20.5-159.1 20.5H569.7l-36.8 189.2c-1.4 7.3-7.9 12.6-15.3 12.6H352.2z"/></g><g id="g3488" transform="translate(159.224 197.307)"><path id="path3490" class="st5" d="M670.1 462.6h87.5c69.9 0 94.2 15.3 102.4 24.5 13.7 15.2 16.3 47.2 7.5 92.5-9.9 50.8-28.2 86.8-54.5 107-26.9 20.7-70.6 31.2-129.9 31.2h-62.7l49.7-255.2zm150.1-182.3h-318c-15 0-27.8 10.6-30.7 25.3L324 1064.7c-1.8 9.2.6 18.6 6.6 25.8 5.9 7.2 14.8 11.4 24.1 11.4h165.4c15 0 27.8-10.6 30.7-25.3L585 900.1h115.9c65.5 0 120.7-7.1 164-21.2 44.5-14.5 85.4-39 121.6-72.8 30-27.6 54.6-58.5 73.3-92 18.7-33.5 32.1-70.8 39.9-110.9 19.3-99.5 3.6-179.2-46.7-236.8-49.8-57.2-128.1-86.1-232.8-86.1M582.6 749h100.6c66.7 0 116.3-12.6 149-37.7 32.6-25.1 54.6-67.1 66.1-125.8 10.9-56.4 6-96.2-15-119.4-20.9-23.2-62.8-34.8-125.6-34.8H644.3L582.6 749m237.6-437.5c95.7 0 165.4 25.1 209.3 75.3 43.9 50.2 57.1 120.3 39.6 210.3-7.2 37.1-19.4 71-36.5 101.7-17.2 30.7-39.6 58.8-67.3 84.3-33 30.9-69.7 52.9-110.1 66-40.4 13.2-91.8 19.7-154.3 19.7H559.3l-39.2 201.8H354.7l147.5-759.1h318"/></g><g id="g3492" transform="translate(311.583 116.307)"><path id="path3494" d="M1311.2 965.4c-4.7 0-9.1-2.1-12.1-5.7s-4.2-8.3-3.3-12.9l65.3-335.9c6.2-31.9 4.7-54.9-4.3-64.6-5.5-5.9-22-15.9-70.9-15.9h-118.2l-82.1 422.3c-1.4 7.3-7.9 12.6-15.3 12.6h-164c-4.7 0-9.1-2.1-12.1-5.7s-4.2-8.3-3.3-12.9l147.5-759.1c1.4-7.3 7.9-12.6 15.3-12.6h164.1c4.7 0 9.1 2.1 12.1 5.7s4.2 8.3 3.3 12.9l-35.6 183.2h127.2c96.9 0 162.6 17.1 200.9 52.2 39 35.9 51.2 93.2 36.2 170.4l-68.6 353.3c-1.4 7.3-7.9 12.6-15.3 12.6h-166.8z"/></g><g id="g3496" transform="translate(293.661 271.057)"><path id="path3498" class="st5" d="M1235.8 4.7h-164.1c-15 0-27.8 10.6-30.7 25.3L893.5 789.1c-1.8 9.2.6 18.6 6.6 25.8 5.9 7.2 14.8 11.4 24.1 11.4h164.1c15 0 27.8-10.6 30.7-25.3l79.6-409.6H1304c48.8 0 59 10.4 59.4 10.9 3 3.2 6.8 17.9.4 50.9l-65.3 335.9c-1.8 9.2.6 18.6 6.6 25.8 5.9 7.2 14.8 11.4 24.1 11.4h166.7c15 0 27.8-10.6 30.7-25.3l68.6-353.3c16.1-82.9 2.3-145.1-40.9-184.9-41.3-37.9-110.5-56.4-211.5-56.4h-108.3l32-164.6c1.8-9.2-.6-18.6-6.6-25.8-5.9-7.1-14.7-11.3-24.1-11.3m0 31.2-39.2 201.8h146.2c92 0 155.4 16.1 190.3 48.1 34.9 32.1 45.4 84.1 31.4 155.9L1495.9 795h-166.7l65.3-335.9c7.4-38.2 4.7-64.3-8.2-78.2C1373.4 367 1346 360 1304 360h-131.1l-84.5 434.9H924.2l147.5-759.1h164.1"/></g><g id="g3500" transform="translate(409.55 145.307)"><path id="path3502" d="M1723.5 785.4c62.8 0 109.8-11.6 139.4-34.4 29.4-22.6 49.6-61.8 60.3-116.4 9.9-51.1 6.1-86.7-11.2-106-17.7-19.7-56.1-29.6-114-29.6h-100.4l-55.7 286.5h81.6zm-328.4 352.9c-4.7 0-9.1-2.1-12.1-5.7s-4.2-8.3-3.3-12.9l147.5-759.1c1.4-7.3 7.9-12.6 15.3-12.6h318c99.9 0 174.3 27.1 221.1 80.7 47 53.8 61.5 129 43.1 223.5-7.5 38.5-20.3 74.3-38.2 106.3-17.9 32.1-41.6 61.7-70.4 88.2-34.5 32.3-73.5 55.6-115.8 69.4-41.7 13.6-95.2 20.5-159.1 20.5h-128.8l-36.8 189.2c-1.4 7.3-7.9 12.6-15.3 12.6h-165.2z"/></g><g id="g3504" transform="translate(407.04 197.307)"><path id="path3506" class="st5" d="M1713 462.6h87.5c69.9 0 94.2 15.3 102.4 24.5 13.7 15.2 16.3 47.2 7.5 92.5-9.9 50.8-28.2 86.8-54.5 107-26.9 20.7-70.6 31.2-129.9 31.2h-62.7l49.7-255.2zm150.1-182.3h-318c-15 0-27.8 10.6-30.7 25.3l-147.5 759.1c-1.8 9.2.6 18.6 6.6 25.8 5.9 7.2 14.8 11.4 24.1 11.4H1563c15 0 27.8-10.6 30.7-25.3l34.3-176.5h115.9c65.5 0 120.7-7.1 164-21.2 44.5-14.5 85.4-39 121.6-72.8 30-27.6 54.6-58.5 73.3-92 18.7-33.5 32.1-70.8 39.9-110.9 19.3-99.5 3.6-179.2-46.7-236.8-49.9-57.2-128.2-86.1-232.9-86.1M1625.5 749H1726c66.7 0 116.3-12.6 149-37.7 32.6-25.1 54.6-67.1 66.1-125.8 10.9-56.4 6-96.2-15-119.4-20.9-23.2-62.8-34.8-125.6-34.8h-113.3L1625.5 749m237.6-437.5c95.7 0 165.4 25.1 209.3 75.3 43.9 50.2 57.1 120.3 39.6 210.3-7.2 37.1-19.4 71-36.5 101.7-17.2 30.7-39.6 58.8-67.3 84.3-33 30.9-69.7 52.9-110.1 66-40.4 13.2-91.8 19.7-154.3 19.7h-141.6l-39.2 201.8h-165.4l147.5-759.1h318"/></g></g></g></svg>